<svg width="185" height="23" viewBox="0 0 185 23" fill="none" xmlns="http://www.w3.org/2000/svg">
<path d="M25.1353 17.8922L27.4853 1.46289H22.9197L20.0679 21.5371H32.1084L32.6102 17.8922H25.1353Z" fill="#131518"/>
<path d="M38.6379 1.46289L35.7456 21.5371H40.376L43.271 1.46289H38.6379Z" fill="#131518"/>
<path d="M59.6876 1.46289L53.3921 15.6734L51.3146 1.46289H47.0337L50.6352 21.5371H54.5699L63.9659 1.46289H59.6876Z" fill="#131518"/>
<path d="M15.8649 3.27705C14.6378 1.83893 12.6616 0.864359 10.2364 0.836434C4.24404 0.769415 1.09112 4.60906 0.16942 11.3864V11.4143C-0.324635 15.0445 0.278324 17.904 1.76314 19.7163C2.97172 21.1851 4.87091 22.0257 7.2668 22.1485C13.2433 22.4529 16.6884 18.3536 17.4162 11.4618C17.8226 7.63888 17.3816 5.06423 15.8623 3.27705M12.8342 11.5176C12.1516 16.5441 10.6535 18.5965 7.82461 18.5965C7.36384 18.6099 6.90609 18.5144 6.48503 18.3173C6.06397 18.1201 5.69031 17.8262 5.39152 17.4572C4.49373 16.3709 4.26529 14.6368 4.69559 11.4701V11.4394C5.36495 6.62801 6.83384 4.34935 9.6627 4.34935C10.7544 4.34935 11.5964 4.68725 12.1489 5.35744C13.0467 6.4465 13.2645 8.33142 12.8316 11.5176" fill="#131518"/>
<path d="M68.2396 1.46289L65.2202 21.5371H78.3206L78.8262 18.1785H70.5644L71.4507 12.681H78.8785L79.3289 9.28664H71.9041L72.5754 4.82419H80.3925L80.8982 1.46289H68.2396Z" fill="#131518"/>
<path d="M98.8617 14.1927L106.61 1.46289H101.971L97.2279 9.59967L94.6714 1.46289H90.3052L94.6179 13.5342L93.555 21.5371H97.832L98.8311 14.2391L98.8617 14.1927Z" fill="#131518"/>
<path d="M123.596 3.27675C122.284 1.83736 120.167 0.863988 117.572 0.836413C111.154 0.770235 107.778 4.60859 106.792 11.3864V11.4139C106.261 15.0538 106.907 17.9022 108.505 19.7138C109.797 21.1836 111.831 22.0273 114.403 22.1487C120.799 22.452 124.489 18.3517 125.27 11.4608C125.705 7.63625 125.234 5.06357 123.605 3.27675M120.347 11.5325C119.616 16.5648 118.01 18.6081 114.982 18.6081C114.489 18.6212 113.998 18.5257 113.547 18.3287C113.096 18.1316 112.696 17.838 112.376 17.4693C111.415 16.3828 111.171 14.6512 111.631 11.4829V11.4525C112.348 6.64082 113.92 4.36318 116.951 4.36318C118.119 4.36318 119.021 4.70234 119.613 5.36964C120.574 6.47262 120.807 8.34492 120.344 11.5325" fill="#131518"/>
<path d="M161.598 1.46289L159.82 15.1654L155.124 1.46289H150.679L148 21.5371H151.966L153.932 7.4029L158.696 21.5371H162.88L165.559 1.46289H161.598Z" fill="#131518"/>
<path d="M184.393 14.8519C183.79 18.9348 180.657 22.5101 174.855 22.1377C172.073 21.9583 170.273 20.8852 168.996 19.161C167.756 17.4837 167.049 14.7057 167.669 10.9924C168.935 3.37838 172.771 0.619656 178.095 0.848629C181.765 1.00863 183.87 2.72732 185 5.96606L181.019 7.27921C180.741 6.25297 179.834 4.43773 177.634 4.25841C174.629 4.01288 172.779 6.57849 172.07 11.4311C171.661 14.2836 171.427 18.052 175.105 18.4686C177.631 18.7582 179.556 17.6547 180.41 14.496C180.489 14.2257 180.542 13.9486 180.568 13.6684H176.143L176.643 10.22H184.886C184.914 10.3386 184.655 13.0836 184.393 14.8353" fill="#131518"/>
<path d="M141.409 1.46289L139.612 13.8651C139.145 16.4031 139.123 17.113 137.956 18.0586C136.848 18.9548 134.452 18.8808 133.271 17.7105C132.341 16.7868 132.709 14.8819 132.954 12.925L134.452 1.46289H129.734L128.027 14.3612C127.572 17.7434 128.778 19.5688 131.067 21.0022C132.889 22.1369 135.408 22.2986 137.039 22.0821C139.933 21.6956 141.839 20.5856 142.944 18.7054C143.633 17.546 143.953 16.3757 144.26 14.3475L146.119 1.46563L141.409 1.46289Z" fill="#131518"/>
</svg>
